<svg version="1.2" xmlns="http://www.w3.org/2000/svg" viewBox="0 0 512 474" width="512" height="474"><style>.s0{fill:#4b4b4b}</style><path class="s0" d="m486.9 274.9c-19.9 63.3-46.4 152.6-63.4 175.5c-27.4 37.3-79.1 19.8-118.7 11.9c-35-7-133.6-55.4-177.2-55.4v-199.3c52.9 0 94.8-79.7 145.6-116.4c27.3-19.7 50.2-65.1 59.2-80.5c15.2-25.8 60.8 1.5 54.7 39.5c-6.1 38-34.9 63.8-39.5 71.4c-4.6 7.6-24.3 28.9-24.3 41c0 10.7 7.6 17.3 47.1 17.3c49.1 0 82.9 0 92.5 0c39.6 0 74.5 46.5 24 95z" /><path class="s0" d="m38.8 207.6h47.8v224.9c0 14.3-11.6 25.9-25.8 25.9h-22c-21.5 0-38.8-17.4-38.8-38.8v-173.2c0-21.4 17.3-38.8 38.8-38.8z" /></svg>